
<svg xmlns="http://www.w3.org/2000/svg" viewBox="0 0 55 55">
	<style type="text/css">
		.st0{fill:url(#SVGID_1_);}
		.st1{fill:#35353D;}
		.st2{fill:#FFFFFF;}
	</style>
	<linearGradient id="SVGID_1_" gradientUnits="userSpaceOnUse" x1="27.5248" y1="3.0294" x2="27.5248" y2="52.0201">
		<stop  offset="0" style="stop-color:#B0B0BF"/>
		<stop  offset="1" style="stop-color:#90909F"/>
	</linearGradient>
	<path class="st0" d="M46,52H9.1C5.7,52,3,49.3,3,46V9.1C3,5.7,5.7,3,9.1,3H46C49.3,3,52,5.7,52,9.1V46C52,49.3,49.3,52,46,52z"/>
	<rect x="37.8" y="41.3" class="st1" width="1.7" height="1.7"/>
	<rect x="37.8" y="37.8" class="st2" width="3.5" height="3.4"/>
	<polygon class="st1" points="37.8,34.4 37.8,32.7 36.1,32.7 36.1,31 31,31 31,29.2 29.2,29.2 27.5,29.2 24.1,29.2 24.1,31 
		24.1,34.4 24.1,34.7 24.1,36.1 24.1,37.8 22.3,37.8 22.3,39.5 19,39.5 19,43 22.3,43 22.4,43 25.8,43 25.8,41.2 27.6,41.2 
		27.6,36.1 29.2,36.1 29.2,34.4 34.4,34.4 34.4,36.1 36.1,36.1 36.1,39.6 39.6,39.6 39.6,34.4 "/>
	<rect x="39.5" y="39.6" class="st1" width="3.4" height="1.7"/>
	<rect x="17.2" y="39.5" class="st2" width="1.7" height="3.4"/>
	<rect x="15.5" y="39.5" class="st1" width="1.7" height="6.9"/>
	<rect x="12" y="24" class="st2" width="3.5" height="3.4"/>
	<rect x="36.1" y="17.2" class="st2" width="3.5" height="3.4"/>
	<polygon class="st2" points="27.5,10.3 27.5,13.8 25.8,13.8 25.8,17.2 29.3,17.2 29.3,13.8 29.3,10.3 "/>
	<polygon class="st2" points="29.3,25.8 29.3,18.9 27.5,18.9 27.5,20.6 25.8,20.6 25.8,27.5 24.1,27.5 24.1,29.2 25.7,29.2 
		25.8,29.2 27.5,29.2 27.5,29.2 29.2,29.2 29.3,29.2 31,29.2 31,25.8 "/>
	<polygon class="st1" points="36.1,18.9 32.7,18.9 32.7,18.9 29.3,18.9 29.3,24.1 32.7,24.1 32.7,22.3 36.1,22.3 "/>
	<path class="st1" d="M27.5,13.8v-3.4h1.7V8.6h-1.7h-1.7h-1.7v1.7h-1.7v6.9h-1.7V19h-1.7v1.7h-1.7l0,1.7h-1.7v5.2h3.4v1.7h5.2v-1.7
		h1.7v-6.9h1.7v-1.7h1.7v-1.7h-3.4v-3.4H27.5z M20.6,27.5H19v-1.7h1.7V27.5z"/>
</svg>
